<svg width="24" height="24" viewBox="0 0 24 24" fill="none" xmlns="http://www.w3.org/2000/svg">
<path d="M9.10589 13.6481L9.43068 14.2164L9.89357 13.7536L13.7536 9.89355L14.2165 9.43066L13.6481 9.10588C13.1528 8.82283 12.5873 8.67 12 8.67C10.1639 8.67 8.67001 10.1639 8.67001 12C8.67001 12.5873 8.82285 13.1527 9.10589 13.6481ZM9.47001 14.78C9.40546 14.78 9.34486 14.7577 9.29357 14.7064C8.56723 13.9801 8.17001 13.0172 8.17001 12C8.17001 9.88614 9.88616 8.17 12 8.17C13.0173 8.17 13.9801 8.56721 14.7065 9.29355C14.7538 9.34085 14.78 9.40411 14.78 9.47C14.78 9.53588 14.7538 9.59914 14.7065 9.64645L9.64646 14.7064C9.59517 14.7577 9.53456 14.78 9.47001 14.78Z" fill="white" stroke="#92ABFE"/>
<path d="M5.43392 17.9491L5.43539 17.9504C5.47927 17.988 5.5419 18.01 5.6 18.01C5.6713 18.01 5.73561 17.9788 5.77403 17.9322L5.77782 17.9275L5.77785 17.9276C5.87055 17.8177 5.85686 17.6595 5.75245 17.5678C4.76223 16.7129 3.87177 15.6653 3.09906 14.4598C2.65864 13.7728 2.4575 12.8689 2.4575 12C2.4575 11.1313 2.65853 10.2277 3.09869 9.54075C5.32498 6.04704 8.55674 3.98 12 3.98C13.9886 3.98 15.9528 4.67165 17.6716 5.97117L17.6719 5.97146C17.7768 6.05092 17.9344 6.03299 18.0215 5.91807C18.1008 5.81332 18.083 5.65602 17.9685 5.56889C16.1476 4.19862 14.0818 3.48 12 3.48C8.4588 3.48 5.05215 5.55756 2.68141 9.2691L5.43392 17.9491ZM5.43392 17.9491C4.40568 17.0746 3.47819 15.9941 2.6829 14.7333L2.68291 14.7332M5.43392 17.9491L2.68291 14.7332M2.68291 14.7332L2.68067 14.7298M2.68291 14.7332L2.68067 14.7298M2.68067 14.7298C2.21362 14.0027 1.965 13.0172 1.965 12.0038M2.68067 14.7298L1.965 12.0038M1.965 12.0038C1.965 10.9905 2.21356 10.0018 2.68137 9.26915L1.965 12.0038Z" fill="white" stroke="#92ABFE"/>
<path d="M12 21.02C10.67 21.02 9.37 20.75 8.12 20.22C7.74 20.06 7.56 19.62 7.72 19.24C7.88 18.86 8.32 18.68 8.7 18.84C9.76 19.29 10.87 19.52 11.99 19.52C15.22 19.52 18.31 17.58 20.47 14.19C21.22 13.02 21.22 10.98 20.47 9.81C20.16 9.32 19.82 8.85 19.46 8.41C19.2 8.09 19.25 7.62 19.57 7.35C19.89 7.09 20.36 7.13 20.63 7.46C21.02 7.94 21.4 8.46 21.74 9C22.8 10.65 22.8 13.34 21.74 15C19.3 18.82 15.75 21.02 12 21.02Z" fill="#92ABFE"/>
<path d="M12.69 16.27C12.34 16.27 12.02 16.02 11.95 15.66C11.87 15.25 12.14 14.86 12.55 14.79C13.65 14.59 14.57 13.67 14.77 12.57C14.85 12.16 15.24 11.9 15.65 11.97C16.06 12.05 16.33 12.44 16.25 12.85C15.93 14.58 14.55 15.95 12.83 16.27C12.78 16.26 12.74 16.27 12.69 16.27Z" fill="#92ABFE"/>
<path d="M2 22.75C1.81 22.75 1.62 22.68 1.47 22.53C1.18 22.24 1.18 21.76 1.47 21.47L8.94 14C9.23 13.71 9.71 13.71 10 14C10.29 14.29 10.29 14.77 10 15.06L2.53 22.53C2.38 22.68 2.19 22.75 2 22.75Z" fill="#92ABFE"/>
<path d="M14.53 10.22C14.34 10.22 14.15 10.15 14 10C13.71 9.71 13.71 9.23 14 8.94L21.47 1.47C21.76 1.18 22.24 1.18 22.53 1.47C22.82 1.76 22.82 2.24 22.53 2.53L15.06 10C14.91 10.15 14.72 10.22 14.53 10.22Z" fill="#92ABFE"/>
</svg>
