<svg width="24" height="24" viewBox="0 0 24 24" fill="none" xmlns="http://www.w3.org/2000/svg">
<path d="M12 15.83C9.88619 15.83 8.17004 14.1139 8.17004 12C8.17004 9.88619 9.88619 8.17004 12 8.17004C14.1139 8.17004 15.83 9.88619 15.83 12C15.83 14.1139 14.1139 15.83 12 15.83ZM12 8.67004C10.1639 8.67004 8.67004 10.1639 8.67004 12C8.67004 13.8362 10.1639 15.33 12 15.33C13.8362 15.33 15.33 13.8362 15.33 12C15.33 10.1639 13.8362 8.67004 12 8.67004Z" fill="white" stroke="#92ABFE"/>
<path d="M2.67133 14.7308L2.67063 14.7297C2.20358 14.0027 1.95496 13.0171 1.95496 12.0037C1.95496 10.9907 2.20344 10.0021 2.67109 9.26951C5.05205 5.55738 8.45892 3.47998 12 3.47998C15.5412 3.47998 18.9478 5.55756 21.3186 9.26913L21.3193 9.27023C21.7863 9.99724 22.035 10.9828 22.035 11.9962C22.035 13.0095 21.7864 13.9982 21.3185 14.7309C18.9478 18.4424 15.5412 20.52 12 20.52C8.44851 20.52 5.04193 18.4422 2.67133 14.7308ZM12 3.97998C8.5567 3.97998 5.32494 6.04702 3.09865 9.54072C2.65849 10.2277 2.45746 11.1313 2.45746 12C2.45746 12.8684 2.65838 13.7718 3.09828 14.4587C5.32458 17.9527 8.55651 20.02 12 20.02C15.4432 20.02 18.675 17.9529 20.9013 14.4592C21.3414 13.7723 21.5425 12.8686 21.5425 12C21.5425 11.1312 21.3414 10.2274 20.9011 9.54039C18.6748 6.04689 15.4431 3.97998 12 3.97998Z" fill="white" stroke="#92ABFE"/>
</svg>
