<svg width="118" height="18" viewBox="0 0 118 18" fill="none" xmlns="http://www.w3.org/2000/svg">
<path d="M12.3679 15.2831H8.00275L9.29613 11.1765H11.0745L10.1045 7.89129H15.4397L19.1581 17.9112H13.4188L12.5296 15.2831H12.3679ZM30.2326 0.0888672C33.5469 0.0888672 36.2145 2.79918 36.2145 6.16654C36.2145 9.5339 33.5469 12.2442 30.2326 12.2442H27.3225V17.9112H21.9065V7.80916H29.0201C29.9093 7.80916 30.6368 7.06998 30.6368 6.16654C30.6368 5.2631 29.9093 4.52393 29.0201 4.52393H9.94281L5.65851 17.9112H0L6.38604 0.0888672H30.2326Z" fill="white"/>
<path d="M43.7912 12.4691H41.1176L40.6841 13.7464H38.0105L40.9731 5.25635H43.8635L46.8261 13.7464H44.1525L43.7189 12.4691H43.7912ZM43.2131 10.4405L42.4905 8.11139L41.768 10.4405H43.2131ZM51.5229 13.7464L50.0054 10.6659V13.7464H47.4764V5.25635H51.2338C51.8842 5.25635 52.4622 5.40661 52.8958 5.63201C53.3293 5.85741 53.6906 6.23307 53.9074 6.60874C54.1242 7.05954 54.2687 7.51033 54.2687 8.03626C54.2687 8.63732 54.1242 9.08812 53.8352 9.53892C53.5461 9.98972 53.1126 10.2902 52.5345 10.5156L54.2687 13.7464H51.5229ZM50.0054 8.93786H51.0171C51.2338 8.93786 51.4506 8.86272 51.5951 8.78759C51.7397 8.63732 51.8119 8.48706 51.8119 8.26166C51.8119 8.03626 51.7397 7.886 51.5951 7.73573C51.4506 7.58547 51.3061 7.51033 51.0893 7.51033H50.0777V8.93786H50.0054ZM57.5926 7.36007V8.41193H60.1217V10.4405H57.5926V11.6426H60.4107V13.7464H55.0636V5.25635H60.4107V7.36007H57.5926ZM71.0327 5.25635V13.7464H68.5037V9.53892L67.2753 13.7464H65.1075L63.8791 9.53892V13.7464H61.3501V5.25635H64.4572L66.2637 10.3654L67.9979 5.25635H71.105H71.0327ZM77.3192 13.7464L75.8741 11.5675L74.6457 13.7464H71.7553L74.4289 9.38865L71.6831 5.25635H74.6457L76.0908 7.36007L77.247 5.25635H80.1373L77.536 9.53892L80.3541 13.7464H77.3915H77.3192ZM88.5916 5.25635L85.7012 11.1918V13.7464H83.1722V11.1918L80.2818 5.25635H83.1722L84.4729 8.26166L85.7735 5.25635H88.5916ZM95.7452 8.18653C95.7452 8.71246 95.6007 9.23839 95.3839 9.61405C95.1671 10.0648 94.8058 10.3654 94.3723 10.6659C93.9387 10.8913 93.3607 11.0416 92.7103 11.0416H91.6987V13.7464H89.1697V5.25635H92.7103C93.722 5.25635 94.4446 5.55688 94.9504 6.08281C95.4562 6.60874 95.7452 7.28493 95.7452 8.18653ZM92.4213 8.93786C92.9271 8.93786 93.2162 8.71246 93.2162 8.18653C93.2162 7.6606 92.9271 7.4352 92.4213 7.4352H91.6987V9.01299H92.4213V8.93786ZM99.0691 11.7178H101.526V13.7464H96.5401V5.25635H99.0691V11.7178ZM104.778 5.25635V10.0648C104.778 10.4405 104.85 10.741 104.994 10.9664C105.139 11.1918 105.428 11.3421 105.789 11.3421C106.15 11.3421 106.439 11.1918 106.584 10.9664C106.729 10.741 106.873 10.4405 106.873 10.0648V5.25635H109.402V10.0648C109.402 10.8913 109.258 11.5675 108.896 12.1686C108.607 12.7696 108.174 13.1453 107.596 13.4458C107.018 13.7464 106.439 13.8966 105.717 13.8966C105.067 13.8966 104.416 13.7464 103.91 13.4458C103.405 13.1453 102.971 12.6945 102.682 12.1686C102.393 11.5675 102.248 10.8913 102.248 10.0648V5.25635H104.778ZM115.4 8.18653C115.327 8.03626 115.183 7.886 114.966 7.81086C114.749 7.73573 114.532 7.6606 114.316 7.6606C113.81 7.6606 113.449 7.81086 113.16 8.18653C112.871 8.48706 112.726 8.93786 112.726 9.53892C112.726 10.2151 112.871 10.6659 113.16 11.0416C113.449 11.3421 113.882 11.5675 114.532 11.5675C115.111 11.5675 115.616 11.3421 115.905 10.8162H113.882V8.93786H118.001V11.5675C117.64 12.1686 117.206 12.7696 116.556 13.2204C115.978 13.6712 115.183 13.8966 114.243 13.8966C113.376 13.8966 112.654 13.7464 112.076 13.3707C111.425 12.995 110.992 12.4691 110.631 11.868C110.269 11.1918 110.125 10.4405 110.125 9.61405C110.125 8.78759 110.269 8.03626 110.631 7.36007C110.992 6.68387 111.425 6.15794 112.076 5.85741C112.654 5.48175 113.376 5.33148 114.243 5.33148C115.327 5.33148 116.122 5.63201 116.845 6.15794C117.495 6.68387 117.929 7.4352 118.001 8.33679H115.327L115.4 8.18653Z" fill="white"/>
</svg>
