<svg width="40" height="40" viewBox="0 0 40 40" fill="none" xmlns="http://www.w3.org/2000/svg">
<path d="M26.9842 3.3335H13.0176C6.95089 3.3335 3.33423 6.95016 3.33423 13.0168V26.9668C3.33423 33.0502 6.95089 36.6668 13.0176 36.6668H26.9676C33.0342 36.6668 36.6509 33.0502 36.6509 26.9835V13.0168C36.6676 6.95016 33.0509 3.3335 26.9842 3.3335ZM28.3342 28.7502H11.6676C10.9842 28.7502 10.4176 28.1835 10.4176 27.5002C10.4176 26.8168 10.9842 26.2502 11.6676 26.2502H28.3342C29.0176 26.2502 29.5842 26.8168 29.5842 27.5002C29.5842 28.1835 29.0176 28.7502 28.3342 28.7502ZM28.3342 21.2502H11.6676C10.9842 21.2502 10.4176 20.6835 10.4176 20.0002C10.4176 19.3168 10.9842 18.7502 11.6676 18.7502H28.3342C29.0176 18.7502 29.5842 19.3168 29.5842 20.0002C29.5842 20.6835 29.0176 21.2502 28.3342 21.2502ZM28.3342 13.7502H11.6676C10.9842 13.7502 10.4176 13.1835 10.4176 12.5002C10.4176 11.8168 10.9842 11.2502 11.6676 11.2502H28.3342C29.0176 11.2502 29.5842 11.8168 29.5842 12.5002C29.5842 13.1835 29.0176 13.7502 28.3342 13.7502Z" fill="white"/>
</svg>
