<svg width="30" height="31" viewBox="0 0 30 31" fill="none" xmlns="http://www.w3.org/2000/svg">
<path d="M20.2375 3H9.7625C5.2125 3 2.5 5.7125 2.5 10.2625V20.725C2.5 25.2875 5.2125 28 9.7625 28H20.225C24.775 28 27.4875 25.2875 27.4875 20.7375V10.2625C27.5 5.7125 24.7875 3 20.2375 3ZM21.25 22.0625H8.75C8.2375 22.0625 7.8125 21.6375 7.8125 21.125C7.8125 20.6125 8.2375 20.1875 8.75 20.1875H21.25C21.7625 20.1875 22.1875 20.6125 22.1875 21.125C22.1875 21.6375 21.7625 22.0625 21.25 22.0625ZM21.25 16.4375H8.75C8.2375 16.4375 7.8125 16.0125 7.8125 15.5C7.8125 14.9875 8.2375 14.5625 8.75 14.5625H21.25C21.7625 14.5625 22.1875 14.9875 22.1875 15.5C22.1875 16.0125 21.7625 16.4375 21.25 16.4375ZM21.25 10.8125H8.75C8.2375 10.8125 7.8125 10.3875 7.8125 9.875C7.8125 9.3625 8.2375 8.9375 8.75 8.9375H21.25C21.7625 8.9375 22.1875 9.3625 22.1875 9.875C22.1875 10.3875 21.7625 10.8125 21.25 10.8125Z" fill="#04177F"/>
</svg>
