<svg width="24" height="24" viewBox="0 0 24 24" fill="none" xmlns="http://www.w3.org/2000/svg">
<path d="M10.507 14.1416C10.24 14.1416 9.97897 14.2208 9.75696 14.3691C9.53496 14.5175 9.36192 14.7283 9.25975 14.975C9.15757 15.2217 9.13083 15.4931 9.18292 15.755C9.23501 16.0168 9.36359 16.2574 9.55239 16.4462C9.74119 16.635 9.98174 16.7636 10.2436 16.8157C10.5055 16.8678 10.7769 16.841 11.0236 16.7388C11.2703 16.6367 11.4811 16.4636 11.6295 16.2416C11.7778 16.0196 11.857 15.7586 11.857 15.4916C11.8572 15.3142 11.8225 15.1386 11.7548 14.9747C11.687 14.8108 11.5876 14.6618 11.4622 14.5364C11.3368 14.411 11.1878 14.3116 11.0239 14.2438C10.86 14.1761 10.6843 14.1413 10.507 14.1416Z" fill="#92ABFE"/>
<path d="M14 2.00977H6C5.47106 2.01162 4.96446 2.22325 4.59137 2.5982C4.21829 2.97316 4.0092 3.48082 4.01 4.00977L4 20.0098C3.9992 20.5387 4.20829 21.0464 4.58137 21.4213C4.95446 21.7963 5.46106 22.0079 5.99 22.0098H18C18.5299 22.0082 19.0377 21.797 19.4125 21.4222C19.7872 21.0475 19.9984 20.5397 20 20.0098V8.00976L14 2.00977ZM14.863 16.9678L13.963 18.5248C13.9348 18.5706 13.8917 18.6054 13.841 18.6235C13.7902 18.6415 13.7348 18.6416 13.684 18.6238L12.559 18.1738C12.3275 18.3531 12.0733 18.501 11.803 18.6138L11.633 19.8028C11.6232 19.8556 11.5953 19.9035 11.554 19.938C11.5128 19.9725 11.4608 19.9915 11.407 19.9918H9.607C9.55287 19.9926 9.50025 19.9739 9.45889 19.9389C9.41753 19.904 9.39021 19.8553 9.382 19.8018L9.212 18.6148C8.93679 18.5054 8.6788 18.3568 8.446 18.1738L7.33 18.6238C7.27921 18.6431 7.22319 18.6436 7.17204 18.6253C7.12088 18.6069 7.07796 18.5709 7.051 18.5238L6.151 16.9678C6.12587 16.9208 6.11752 16.8666 6.12734 16.8143C6.13716 16.7619 6.16456 16.7144 6.205 16.6798L7.159 15.9328C7.12303 15.6399 7.12303 15.3437 7.159 15.0508L6.205 14.3038C6.16274 14.2704 6.13399 14.2228 6.12406 14.1699C6.11414 14.1169 6.12371 14.0622 6.151 14.0158L7.051 12.4588C7.07913 12.4125 7.1223 12.3773 7.17327 12.3591C7.22425 12.3409 7.27994 12.3408 7.331 12.3588L8.446 12.8088C8.68195 12.6312 8.93889 12.4834 9.211 12.3688L9.382 11.1808C9.39154 11.1279 9.41923 11.0799 9.4603 11.0453C9.50137 11.0106 9.55325 10.9913 9.607 10.9908H11.407C11.4601 10.9902 11.5116 11.0092 11.5515 11.0443C11.5913 11.0794 11.6168 11.128 11.623 11.1808L11.794 12.3688C12.0688 12.4779 12.3265 12.6261 12.559 12.8088L13.675 12.3588C13.7259 12.3392 13.7822 12.3385 13.8335 12.3568C13.8849 12.3752 13.928 12.4114 13.955 12.4588L14.855 14.0158C14.88 14.0629 14.8882 14.1171 14.8782 14.1694C14.8682 14.2218 14.8406 14.2692 14.8 14.3038L13.846 15.0508C13.8717 15.196 13.8837 15.3433 13.882 15.4908C13.8794 15.6387 13.8673 15.7863 13.846 15.9328L14.809 16.6798C14.8494 16.7144 14.8768 16.7619 14.8867 16.8143C14.8965 16.8666 14.8881 16.9208 14.863 16.9678ZM13 9.00976V3.50977L18.5 9.00976H13Z" fill="#92ABFE"/>
</svg>
