<svg width="24" height="21" viewBox="0 0 24 21" fill="none" xmlns="http://www.w3.org/2000/svg">
<path d="M5.4 0.900391C6.19565 0.900391 6.95871 1.21646 7.52132 1.77907C8.08393 2.34168 8.4 3.10474 8.4 3.90039C8.4 4.69604 8.08393 5.4591 7.52132 6.02171C6.95871 6.58432 6.19565 6.90039 5.4 6.90039C4.60435 6.90039 3.84129 6.58432 3.27868 6.02171C2.71607 5.4591 2.4 4.69604 2.4 3.90039C2.4 3.10474 2.71607 2.34168 3.27868 1.77907C3.84129 1.21646 4.60435 0.900391 5.4 0.900391ZM19.2 0.900391C19.9956 0.900391 20.7587 1.21646 21.3213 1.77907C21.8839 2.34168 22.2 3.10474 22.2 3.90039C22.2 4.69604 21.8839 5.4591 21.3213 6.02171C20.7587 6.58432 19.9956 6.90039 19.2 6.90039C18.4044 6.90039 17.6413 6.58432 17.0787 6.02171C16.5161 5.4591 16.2 4.69604 16.2 3.90039C16.2 3.10474 16.5161 2.34168 17.0787 1.77907C17.6413 1.21646 18.4044 0.900391 19.2 0.900391ZM0 12.1016C0 9.89289 1.7925 8.10039 4.00125 8.10039H5.6025C6.19875 8.10039 6.765 8.23164 7.275 8.46414C7.22625 8.73414 7.20375 9.01539 7.20375 9.30039C7.20375 10.7329 7.83375 12.0191 8.8275 12.9004H0.79875C0.36 12.9004 0 12.5404 0 12.1016ZM15.1988 12.9004H15.1725C16.17 12.0191 16.7963 10.7329 16.7963 9.30039C16.7963 9.01539 16.77 8.73789 16.725 8.46414C17.235 8.22789 17.8013 8.10039 18.3975 8.10039H19.9988C22.2075 8.10039 24 9.89289 24 12.1016C24 12.5441 23.64 12.9004 23.2013 12.9004H15.1988ZM8.4 9.30039C8.4 8.34561 8.77929 7.42994 9.45442 6.75481C10.1295 6.07968 11.0452 5.70039 12 5.70039C12.9548 5.70039 13.8705 6.07968 14.5456 6.75481C15.2207 7.42994 15.6 8.34561 15.6 9.30039C15.6 10.2552 15.2207 11.1708 14.5456 11.846C13.8705 12.5211 12.9548 12.9004 12 12.9004C11.0452 12.9004 10.1295 12.5211 9.45442 11.846C8.77929 11.1708 8.4 10.2552 8.4 9.30039ZM4.8 19.0991C4.8 16.3391 7.03875 14.1004 9.79875 14.1004H14.2013C16.9613 14.1004 19.2 16.3391 19.2 19.0991C19.2 19.6504 18.7537 20.1004 18.1987 20.1004H5.80125C5.25 20.1004 4.8 19.6541 4.8 19.0991Z" fill="#92ABFE"/>
</svg>
